<?xml version="1.0" encoding="UTF-8" standalone="no"?>
<!-- Created with Inkscape (http://www.inkscape.org/) -->

<svg
   width="145.59035mm"
   height="124.03243mm"
   viewBox="0 0 145.59035 124.03243"
   version="1.1"
   id="svg1"
   xml:space="preserve"
   inkscape:export-filename="bitmap.svg"
   inkscape:export-xdpi="96"
   inkscape:export-ydpi="96"
   xmlns:inkscape="http://www.inkscape.org/namespaces/inkscape"
   xmlns:sodipodi="http://sodipodi.sourceforge.net/DTD/sodipodi-0.dtd"
   xmlns="http://www.w3.org/2000/svg"
   xmlns:svg="http://www.w3.org/2000/svg"><sodipodi:namedview
     id="namedview1"
     pagecolor="#ffffff"
     bordercolor="#000000"
     borderopacity="0.25"
     inkscape:showpageshadow="2"
     inkscape:pageopacity="0.0"
     inkscape:pagecheckerboard="0"
     inkscape:deskcolor="#d1d1d1"
     inkscape:document-units="mm"><inkscape:page
       x="0"
       y="0"
       width="145.59035"
       height="124.03243"
       id="page2"
       margin="0"
       bleed="0" /></sodipodi:namedview><defs
     id="defs1" /><g
     inkscape:label="Layer 1"
     inkscape:groupmode="layer"
     id="layer1"
     transform="translate(-7.8857739,-9.5672514)"><path
       style="fill:#e1a057;stroke:none"
       d="m 44.338783,41.881769 c -4.87069,-0.71664 -9.68734,-2.55324 -14.55209,-3.49164 -1.3656,-0.26342 -4.23263,-1.22741 -5.49561,-0.46875 -0.91411,0.5491 -0.71611,1.54012 -0.39443,2.37289 0.9238,2.39153 1.76773,4.82222 1.9119,7.40833 0.31785,5.701318 -0.0828,11.525218 0.6143,17.197918 0.7178,5.84156 2.71346,11.02184 4.95134,16.40416 -5.91382,1.4569 -11.9933,2.3962 -17.72708,4.54896 -1.69502,0.63639 -4.86773,1.26393 -5.62342,3.14866 -1.12548,2.80703 4.95939,7.38228 6.56947,9.23571 7.94527,9.146183 19.41141,17.171473 31.86228,17.716673 6.259836,0.27411 12.722181,-1.24525 18.256251,-4.16494 2.6387,-1.39213 7.132106,-5.31481 10.318546,-4.18985 3.26392,1.15232 3.19004,5.84855 3.81686,8.62979 1.08929,4.83326 3.80072,9.24583 6.99676,12.96458 1.13748,1.32353 3.52466,4.69815 5.57524,4.38502 2.96672,-0.45302 -1.506,-4.06692 -2.10014,-4.65348 -4.0771,-4.0251 -7.44256,-9.09971 -8.44543,-14.81279 -0.4797,-2.73272 0.3644,-6.38588 3.68191,-6.82894 2.63276,-0.35161 5.18198,1.37782 7.14375,2.91613 4.56909,3.58283 8.05699,8.36753 12.7,11.87727 9.82296,7.42533 21.49405,7.4789 33.07292,5.15896 3.29324,-0.65984 7.9723,-1.22975 10.81914,-3.09191 1.92002,-1.25593 0.52564,-3.78665 -0.35565,-5.26901 -2.58424,-4.34677 -6.23357,-8.09532 -10.19891,-11.20191 -0.84807,-0.66442 -3.95405,-2.18658 -3.95405,-3.36446 0,-1.41544 3.77692,-3.73301 4.72412,-4.748213 4.13464,-4.43146 7.58464,-9.41943 11.1668,-14.2875 1.00494,-1.36568 4.88265,-5.03528 3.51288,-6.80567 -0.80228,-1.03692 -2.62972,-1.18107 -3.80808,-1.50869 -2.92042,-0.81198 -5.80675,-1.73281 -8.73125,-2.5307 -2.88056,-0.78589 -6.00193,-1.52854 -8.99584,-1.59035 0.73877,-2.70107 2.06843,-5.24972 2.90369,-7.9375 1.45352,-4.67732 2.33019,-9.49433 3.28748,-14.2875 0.3659,-1.83209 2.16885,-6.245908 0.79294,-7.852368 -1.23168,-1.43805 -6.39709,0.89619 -8.04244,1.23697 -5.19761,1.07649 -10.49177,1.86528 -15.61042,3.2881 -3.05993,0.850558 -5.95071,2.229848 -8.99583,3.062708 -0.47957,-11.167768 -5.91839,-21.434086 -10.20728,-31.48541 -1.04523,-2.449559 -1.9333,-4.939604 -2.92022,-7.408122 -0.32638,-0.816343 -0.83707,-2.087389 -1.94722,-1.861079 -1.71426,0.349462 -3.32159,3.450726 -4.45259,4.659002 -3.57654,3.82089 -7.65272,7.080413 -11.42894,10.685199 -1.012,0.966059 -3.17342,3.837573 -4.507306,4.087162 -1.46352,0.273852 -3.7671,-2.847937 -4.75311,-3.699669 -3.17084,-2.739021 -6.57042,-5.30155 -9.5003,-8.305186 -1.30998,-1.342964 -2.93569,-4.060426 -4.783111,-4.596731 -2.17013,-0.629984 -2.71404,5.315025 -3.02699,6.704007 -1.6893,7.497669 -4.12084,14.991329 -4.12084,22.754169 M 90.64086,14.100518 c 1.07802,2.627617 1.20793,3.826639 -0.26459,6.349999 -1.01206,-1.481426 -0.86831,-4.965991 0.26459,-6.349999 m -1.05834,0.79375 0.52917,13.229165 C 87.08375,24.390005 85.11869,18.002039 89.58252,14.894268 M 55.980444,34.473429 h -0.26458 c -1.66915,-5.644855 -3.968751,-11.240064 -3.968751,-17.197912 3.172941,0.754023 2.464411,2.844384 3.186431,5.291666 1.34585,4.561721 3.46137,7.164194 1.0469,11.906246 M 92.22836,17.804683 c 0.99969,1.7128 3.0623,4.596441 3.0623,6.614584 0,1.522492 -1.33472,3.378637 -1.92966,4.762499 -1.13326,2.636033 -2.04504,5.575043 -2.12238,8.466663 -0.0882,3.29659 2.02805,5.88772 2.28407,8.99584 0.19988,2.426578 -1.43148,5.369028 -2.61725,7.408328 -0.85382,-1.22866 -1.01874,-3.06966 -1.4995,-4.49792 -0.69923,-2.077248 -2.00127,-4.135598 -2.17997,-6.349998 -0.42281,-5.23933 2.77742,-9.78478 3.5633,-14.816663 0.56243,-3.601112 -1.14436,-7.453598 1.43909,-10.583333 m -5.82084,0.264584 3.15398,11.641666 -3.15398,11.641666 c -1.47365,-0.89172 -2.15281,-3.68388 -2.6048,-5.29167 -1.76172,-6.266797 0.17506,-12.008614 2.07564,-17.991662 h 0.52916 m -1.32291,0.79375 -2.64584,12.964582 c -1.78066,-1.28163 -4.46036,-4.945361 -3.54064,-7.363414 0.77618,-2.04067 4.4213,-4.394185 6.18648,-5.601168 m -33.866667,0.264583 2.937981,10.847916 1.29535,11.906253 c -0.90863,-0.24852 -1.7736,-0.59674 -2.645828,-0.9534 -5.544173,-2.26705 -1.233993,-7.52369 -1.714073,-11.746603 -0.19015,-1.672588 -1.22684,-2.717817 -1.69693,-4.233333 -0.46385,-1.495387 0.78983,-4.751292 1.8235,-5.820833 m 8.202081,3.439583 -1.85208,3.96875 c -1.95499,-1.280574 -2.60073,-4.693851 -2.64583,-6.879166 l 4.49791,2.910416 m 0.52917,24.341666 h -0.52917 c -1.70658,-3.06535 -4.32975,-6.5436 -3.61413,-10.31875 0.40188,-2.12008 1.82496,-3.88099 2.11809,-6.08542 0.26673,-2.005857 -0.74983,-5.643038 1.58322,-6.923669 0.89476,-0.491144 1.94591,0.654038 2.55866,1.178376 1.78769,1.529752 3.5861,3.089346 5.29044,4.710646 0.55602,0.528924 1.40652,1.230807 1.2778,2.092987 -0.25156,1.68487 -2.65231,3.86361 -3.60352,5.29166 -2.11675,3.17789 -3.53871,6.59119 -5.08139,10.05417 M 78.20544,24.948433 c 0.66559,3.430152 2.84438,5.167816 4.10125,8.202086 0.89606,2.16324 1.15708,4.65585 2.00111,6.87916 1.6383,4.31554 4.01845,8.367808 4.84722,12.964588 0.73839,4.09547 0.1509,7.87519 -0.63083,11.90625 h -0.26458 c -1.87473,-7.78423 -3.5149,-14.98145 -7.72682,-21.960418 -1.7301,-2.86671 -3.67476,-5.56542 -5.73651,-8.20208 -0.74491,-0.95263 -2.49693,-2.19516 -2.66033,-3.43959 -0.25612,-1.950531 4.55957,-5.376242 6.06949,-6.349996 m 17.99167,0.264583 1.72224,4.497917 -2.01357,5.027086 -0.29418,6.35 -1.26658,3.96875 h -0.26458 c -3.81049,-6.69574 -1.47676,-13.40089 1.5875,-19.843753 h 0.52917 m -47.095827,0.529167 c 3.410657,2.978904 0.21606,9.384536 0.26458,13.229166 -3.45293,-2.64895 -2.3352,-9.795009 -0.26458,-13.229166 m 49.477077,4.762496 c 1.40434,3.42395 1.29258,7.67865 -2.38125,9.78959 0,-3.27712 -0.37911,-7.42335 2.38125,-9.78959 m -27.781249,2.38125 c 3.124859,4.11619 6.430109,7.85333 8.914169,12.43542 5.94082,10.958468 7.82151,23.755238 5.53502,35.983328 -0.66869,3.57611 -1.52496,7.12759 -2.67687,10.58334 -0.44122,1.32367 -0.74403,3.21366 -1.98274,3.96875 0,-6.23381 -1.81769,-11.6854 -2.82426,-17.72709 -0.79442,-4.76826 -0.0786,-9.31907 -1.789,-14.02291 -1.87747,-5.16327 -6.745806,-9.31999 -7.557566,-14.81667 h -0.26459 c 0.55681,4.31159 3.507087,7.58796 5.397016,11.37708 1.91132,3.83202 2.71719,8.17863 2.80507,12.43542 l -4.25049,-7.40833 -4.907036,-6.87917 -2.51354,-3.43958 1.0814,-5.29167 5.827167,-13.758328 h -0.26459 l -3.439577,7.14375 c -1.52093,-3.6165 -0.97368,-8.6895 2.910417,-10.58334 m 29.633329,2.11667 3.10967,11.90625 0.42444,4.441568 -5.12161,3.96018 -8.73125,9.8545 c 0.64607,-2.68258 0.34797,-5.5687 1.03833,-8.20208 2.03957,-7.78 5.49172,-15.000268 9.28042,-21.960418 m -53.445827,2.38125 c 0.9896,1.13276 1.9086,2.30378 3.175,3.14723 3.327891,2.21645 9.831901,4.19199 8.995831,9.552768 l -12.964581,-7.143748 0.79375,-5.55625 m 19.579161,1.05833 c 0.76222,6.0311 -1.73019,10.156918 -2.91041,15.874998 -1.05387,-0.49145 -2.39074,-1.44365 -2.70484,-2.64583 -0.29407,-1.12555 0.50276,-2.654 0.85275,-3.70417 1.01927,-3.058388 2.20722,-7.407648 4.7625,-9.524998 M 41.692943,63.577597 h -0.26458 c -2.07609,-4.38649 -4.13364,-8.5136 -7.04576,-12.43542 -2.15167,-2.89772 -5.52937,-6.120528 -6.18341,-9.789578 1.79098,0.5587 2.84624,3.18835 4.23436,4.4528 1.66201,1.51394 3.7171,2.632468 5.24185,4.288868 3.50099,3.80328 4.01754,8.5736 4.01754,13.48333 m -8.20208,-21.960418 2.11667,5.82084 c -2.322,-1.32298 -4.98386,-3.46428 -5.82084,-6.08542 l 3.70417,0.26458 m 10.58333,2.38125 c 0,8.988418 0.77634,18.048288 4.23619,26.458338 1.56414,3.80202 4.013681,6.95632 5.817981,10.58333 -4.982941,-2.48157 -10.573151,-8.913 -11.554701,-14.55208 -0.67482,-3.87691 0.22358,-7.53869 -1.20594,-11.37709 -1.80383,-4.84348 -5.89381,-8.107788 -7.34769,-13.229158 l 0.26458,-0.26459 9.78958,2.38125 m -15.875,-0.52916 c 3.75408,5.163488 8.11161,10.468868 10.58334,16.404158 -5.80567,-2.20048 -10.51105,-7.06656 -10.58436,-13.229158 -0.0126,-1.05597 -0.38578,-2.18399 10e-4,-3.175 m 18.25625,1.5875 8.731251,4.899888 3.01147,2.78344 -0.34195,4.4875 0.2409,7.14375 c -1.66,-1.15558 -4.17258,-2.66641 -5.104051,-4.49893 -1.66123,-3.2682 -1.11121,-6.87722 -4.42095,-9.2594 2.32207,2.54573 2.76698,5.4708 3.439582,8.73125 -3.557612,-2.00513 -7.211812,-10.34208 -5.556252,-14.287498 m 88.899997,1.05833 c -1.83723,2.608168 -4.4923,4.326988 -5.69813,7.408328 -1.15788,2.9588 -0.69156,7.36007 -3.08967,9.70262 -2.34429,2.28997 -6.47466,2.56927 -9.46845,3.52655 0.42071,-1.46038 1.23747,-2.75114 1.61506,-4.23333 0.79007,-3.10128 0.78376,-6.19641 3.08334,-8.68532 2.23982,-2.42423 5.44345,-3.35983 8.26618,-4.8901 1.61109,-0.8734 3.45508,-2.762648 5.29167,-2.828748 m -2.11667,0 c -2.20165,2.850918 -6.57856,3.606638 -9.525,5.520528 -2.57809,1.67462 -3.29756,3.83588 -5.02708,6.12114 -0.81743,-2.76548 0.0234,-8.13831 2.69463,-9.79265 2.71123,-1.679128 8.70392,-1.713598 11.85745,-1.849018 m 2.38125,0.79375 c -0.22858,5.322948 -2.00228,12.560248 -7.40833,15.081248 1.90951,-5.97179 1.72184,-11.07559 7.40833,-15.081248 m -15.61041,1.058328 c -0.44502,2.49645 -1.95711,4.52598 -2.21752,7.14375 -0.32083,3.22518 0.79418,5.81452 -0.55122,8.99584 -1.47469,3.48705 -5.14504,5.03936 -7.81439,7.45345 -2.245,2.03031 -3.40369,4.84679 -5.45968,6.93653 -1.24405,1.26445 -3.52528,2.31646 -5.12386,3.07252 0.58449,-1.98704 1.97138,-3.65733 2.79813,-5.55625 1.96521,-4.51378 3.41002,-9.13736 4.08104,-14.02292 0.30029,-2.18636 0.52903,-4.40679 0.52916,-6.61458 6e-5,-0.87643 -0.24977,-2.23084 0.42423,-2.91858 2.8457,-2.90368 9.56308,-3.51368 13.33411,-4.48976 m -73.554147,3.70417 c 1.47979,2.60024 2.17507,5.40839 4.27927,7.6625 2.328449,2.49433 5.656831,3.98783 7.561041,6.88958 1.12763,1.71835 1.42325,3.95213 2.26508,5.82084 1.46582,3.25383 3.32252,6.196 5.52951,8.99583 4.08673,5.18449 10.970816,10.40836 11.585926,17.4625 -2.07843,-1.67587 -3.7131,-3.87388 -5.82083,-5.55523 -3.280886,-2.61721 -7.131896,-4.49656 -10.318746,-7.22419 -6.47304,-5.5403 -10.955481,-13.45882 -13.188951,-21.61641 -0.78794,-2.87793 -1.27804,-5.78232 -1.69937,-8.73125 -0.15684,-1.09773 -0.627,-2.66009 -0.19293,-3.70417 m -17.99166,0.52917 10.90079,9.60156 4.89357,11.30052 9.605631,10.05417 c -3.550451,-0.52434 -6.984671,-1.72377 -10.583331,-2.19118 -1.36463,-0.17725 -3.53853,0.19974 -4.67553,-0.65105 -1.43577,-1.07437 -2.25609,-3.5066 -2.96043,-5.09527 -2.151,-4.85167 -2.56114,-9.22076 -3.71152,-14.2875 -0.40126,-1.76733 -0.96737,-3.50774 -1.97764,-5.02709 -0.76991,-1.15788 -2.08771,-2.22429 -1.49154,-3.70416 m 75.670827,1.85208 0.26458,0.26458 c -0.76518,4.12178 -0.52615,8.29996 -1.55974,12.43542 -2.24228,8.9715 -7.30459,16.52683 -13.78609,23.01875 -1.55925,1.56176 -2.96682,3.48703 -4.7625,4.7625 0.69723,-2.94362 1.87809,-5.76368 2.53355,-8.73125 2.10323,-9.52232 2.92932,-17.93449 9.56562,-25.66458 1.95836,-2.28114 4.81921,-5.15162 7.74458,-6.08542 m -75.670827,0.52917 c 2.59307,3.37642 3.40488,7.71539 3.43958,11.90625 h -0.26458 c -0.89479,-1.3086 -2.43717,-2.36254 -3.16765,-3.72785 -0.83626,-1.56301 -0.68083,-6.57342 -0.007,-8.1784 m 32.014581,0 2.41065,2.64583 -0.29399,6.87917 1.05834,8.99583 h -0.26459 c -1.88789,-4.54057 -3.43926,-8.7651 -3.43958,-13.75833 -1e-4,-1.57169 -0.22903,-3.33638 0.52917,-4.7625 m 74.347906,0.79375 -3.18908,12.17083 -2.27121,4.60285 -7.23971,0.70862 -15.34583,4.21353 c 2.44169,-7.36153 10.89938,-8.76137 16.93333,-11.3434 4.71601,-2.01806 8.41268,-5.70869 10.58334,-10.35243 h 0.52916 m -70.379156,3.43958 h 0.26458 c 7.204876,9.71951 13.229166,20.86279 13.229166,33.3375 h -0.26459 c -2.65663,-4.76704 -7.285666,-8.0523 -10.072736,-12.7 -2.15199,-3.58865 -2.73177,-8.36434 -3.23176,-12.43542 -0.28119,-2.28961 -0.82733,-6.05092 0.0753,-8.20208 m -35.718751,5.29167 c 3.31813,2.54522 4.26907,7.1716 5.78409,10.84791 0.78397,1.90238 2.05648,3.79279 2.418,5.82084 -0.94327,0.003 -2.51258,0.43492 -3.29872,-0.17007 -0.96676,-0.74398 -1.48037,-2.44995 -1.95232,-3.5341 -1.36411,-3.13362 -4.17198,-9.56049 -2.95105,-12.96458 m 97.366657,10.58333 v 0.26458 c -3.86765,2.36712 -7.02377,2.40514 -11.37708,1.85209 2.42943,-2.115 8.28215,-2.11667 11.37708,-2.11667 m 1.85209,0 c -1.01557,2.67941 -3.29906,5.13564 -5.29269,7.14355 -8.00955,8.06689 -18.09041,9.86618 -28.57398,12.62997 -2.97047,0.78311 -5.5813,2.33376 -8.46667,3.24523 1.04553,-2.19728 2.91062,-3.86359 4.49792,-5.66853 5.17176,-5.8809 13.16615,-12.22268 20.90208,-14.23871 2.94343,-0.76708 5.77962,0.57808 8.73125,0.28295 3.17441,-0.3174 5.39981,-2.16991 8.20209,-3.39446 m 2.64583,0.26458 c -0.47933,1.66388 -1.45182,3.12753 -2.02541,4.7625 -2.02651,5.77641 -3.89904,13.13144 -10.41001,15.31808 -3.65939,1.22896 -8.33659,0.0982 -11.90625,-1.03058 l 13.75834,-7.2789 10.58333,-11.7711 m 14.2875,3.43959 v 0.26458 c -4.22542,0.035 -9.09027,1.36353 -12.7,3.56228 -1.8179,1.10731 -3.15208,2.87337 -5.02708,3.84605 0.97562,-2.99834 1.74314,-8.63496 4.33378,-10.68827 0.96494,-0.7648 2.50943,-0.32955 3.60372,-0.13739 3.29783,0.57911 6.82787,1.57544 9.78958,3.15275 m 0.79375,0.79375 v 0.52916 c -9.32264,0.81394 -11.6044,10.49423 -18.25625,14.98612 -2.56753,1.73381 -7.71339,3.67703 -10.58333,1.68263 2.05518,-0.77556 3.83073,-1.31058 5.53256,-2.80874 2.80286,-2.46745 4.37422,-6.01705 7.16764,-8.52241 4.24563,-3.80781 10.48604,-5.75006 16.13938,-5.86676 m 0.79375,0.79375 c -3.06528,3.95667 -7.08103,6.62042 -11.90625,7.9375 2.01849,-4.40665 7.3969,-7.00427 11.90625,-7.9375 m 2.38125,0.26458 c -0.88165,2.10648 -2.31383,5.50473 -4.05573,7.00881 -1.41441,1.22129 -3.45184,1.55788 -4.93623,2.86019 -3.8947,3.41693 -5.40698,6.83242 -11.11637,5.21225 1.38697,-1.97081 3.26442,-4.76758 5.29187,-6.0944 2.51048,-1.64294 5.56536,-2.15904 7.93729,-4.08348 2.18787,-1.77511 3.83044,-4.74487 6.87917,-4.90337 M 63.918264,100.35468 v 0.26458 c -8.16296,-0.0676 -16.496991,-4.500883 -22.489591,-9.715073 -2.36779,-2.06021 -5.37173,-4.94732 -6.35,-8.01201 5.01919,0 6.93523,4.686 10.58334,7.73805 5.2618,4.40209 11.750841,7.60409 18.256251,9.724453 m 11.641656,2.11667 C 66.260594,99.927877 55.840434,96.455837 48.043263,90.663087 c -2.79521,-2.07663 -6.04483,-4.62846 -7.67292,-7.77091 9.86091,10e-4 19.084621,4.35213 26.722921,10.28813 3.17904,2.47055 6.819876,5.52345 8.466656,9.291043 m -22.75416,-2.11667 c -1.301497,0.77983 -3.021017,0.69079 -4.497917,0.83846 -4.11736,0.41168 -9.19537,0.32558 -12.41071,-2.739543 -2.54544,-2.4265 -3.46779,-5.87806 -6.37471,-8.149 -2.96489,-2.31623 -6.55257,-2.18948 -9.525,-3.97283 2.84781,-1.26235 5.9544,-1.93265 8.99584,-2.54009 0.96415,-0.19256 2.42123,-0.73145 3.39058,-0.43036 0.96672,0.30028 1.47488,1.66857 1.99581,2.44128 1.20205,1.78301 2.66027,3.47747 4.14902,5.02688 4.16568,4.33543 9.08088,6.75504 14.277087,9.525203 m -20.108307,-5.027083 -6.87916,-3.75337 -10.05417,-3.39038 c 1.55455,-1.15678 3.74814,-0.8548 5.55625,-0.55019 4.49551,0.75735 9.62771,3.14604 11.37708,7.69394 m 111.389537,-7.14375 c -0.92908,4.80482 -5.99051,10.33681 -11.1125,8.73125 1.15998,-0.88154 2.51334,-1.41309 3.61822,-2.41575 2.58153,-2.34271 4.13644,-4.91713 7.49428,-6.3155 M 36.930443,101.14843 c -3.86176,0 -7.37837,-0.47844 -10.58333,-2.846933 -2.54337,-1.87956 -4.34178,-4.62961 -7.14375,-6.17401 -1.89097,-1.04227 -3.7671,-0.98728 -5.80511,-1.337 -0.4696,-0.0806 -1.04867,-0.35474 -0.76293,-0.93136 1.24821,-2.51879 5.19116,0.0883 6.83262,0.61492 5.78557,1.85598 10.0963,3.41546 14.55209,7.76009 0.97987,0.95542 2.25805,1.70375 2.91041,2.914293 m -1.32291,1.05833 c -2.46048,2.86259 -9.62855,3.17076 -12.7,1.13693 -2.30857,-1.52865 -4.03977,-4.088003 -5.82063,-6.164013 -1.36017,-1.58558 -3.21428,-3.48909 -3.70437,-5.55625 5.79713,0.004 7.98787,3.67085 12.17083,6.96675 2.84588,2.242373 6.41429,3.586453 10.05417,3.616583 m 93.397907,1.85209 v 0.52916 c -6.97912,3.73608 -14.77456,4.73996 -22.48958,2.8112 -7.08663,-1.77165 -14.77769,-5.9121 -22.225,-4.13411 1.43781,-3.01929 6.27171,-4.838613 9.26041,-5.902293 12.29285,-4.37506 24.35676,2.07579 35.45417,6.696043 m 7.9375,-6.085423 c -1.05406,1.49636 -3.82827,4.780733 -5.82083,4.871313 -0.96735,0.044 -2.0766,-0.81454 -2.91042,-1.23247 -2.10295,-1.05405 -4.27818,-2.005153 -6.35,-3.109673 5.22072,-3.62883 9.55069,-0.52917 15.08125,-0.52917 m -91.810407,4.762503 c -2.65957,5.25302 -8.64843,6.22532 -13.75834,5.2396 -2.22889,-0.42994 -4.5344,-0.74479 -5.82083,-2.85835 2.72865,0.34485 5.30913,0.40855 7.9375,-0.54346 1.77481,-0.64284 3.46963,-2.0009 5.29167,-2.39901 1.96187,-0.42866 4.32973,0.55565 6.35,0.56122 m 28.574987,2.11667 v 0.26458 c -4.669446,1.32558 -8.524106,4.37879 -12.964576,6.2618 -7.6206,3.2316 -16.044421,3.14414 -23.812501,0.61737 v -0.52917 c 4.06994,-1.75645 6.17018,-6.47714 10.31875,-8.35642 1.91924,-0.8694 4.54272,-0.7756 6.614581,-0.92748 6.36117,-0.46628 13.58528,1.37755 19.843746,2.66932 m 60.85417,3.175 c -9.82749,0.0271 -18.19727,7.76395 -28.31042,4.91378 -3.48229,-0.98142 -6.06693,-3.71516 -8.99583,-5.70753 1.30714,-0.38649 2.97164,0.56456 4.23333,0.96728 2.56329,0.81817 5.27223,1.52522 7.9375,1.90843 7.531,1.08277 13.92384,-0.61073 20.6375,-3.92138 1.71823,-0.8473 3.41418,0.52814 4.49792,1.83942 m 0.79375,17.4625 c -2.66867,0.55052 -5.72705,1.50611 -8.46667,0.95809 -3.29209,-0.65855 -6.23927,-2.80646 -9.525,-3.63169 -4.92245,-1.23631 -9.72109,-1.60959 -14.02291,-4.62102 -5.03394,-3.52396 -8.45386,-8.75881 -13.75834,-12.01997 2.94516,-1.04478 8.11945,3.23413 10.31875,4.86071 5.20561,3.84997 10.17867,7.33106 16.66875,8.47034 5.64817,0.99147 15.38887,-0.007 18.78542,5.98354 M 39.047113,109.08593 c -2.54055,3.06601 -5.3314,1.75696 -8.20208,0 l 4.49791,0.48037 3.70417,-0.48037 m 103.716657,7.14375 c -5.77795,2.55739 -11.1063,-1.15644 -16.93333,-1.04404 -3.69238,0.0712 -7.33509,2.70034 -10.84792,2.55805 -2.02444,-0.082 -6.07704,-1.62222 -7.14375,-3.36609 3.8709,0.30549 7.36515,0.12178 11.1125,-1.06589 4.794,-1.5194 11.98884,-6.46641 17.19792,-4.11207 1.60439,0.72515 2.95801,2.28133 4.08002,3.59046 0.94056,1.09743 1.8872,2.13998 2.53456,3.43958 m 1.85209,3.43958 c -3.17105,0.86558 -5.91926,1.52825 -9.26042,1.29924 -5.71167,-0.3915 -11.18148,-2.50343 -16.93333,-2.62215 0.80841,-1.32257 3.05515,-1.55874 4.49791,-1.85107 5.01835,-1.01676 9.61536,1.09243 14.55209,1.4105 1.80212,0.11611 3.82035,-1.006 5.50073,-0.74944 1.06975,0.16332 1.47274,1.62995 1.64302,2.51292 m 0.52916,0.52917 c 0.31888,1.9426 -1.6274,2.55474 -3.175,3.15867 -4.46583,1.74274 -6.16931,1.21128 -10.05416,-1.57117 l 6.87916,-0.004 6.35,-1.58363 m -36.24791,1.85208 15.34583,4.23334 v 0.26458 c -4.0787,0 -7.83268,-0.58563 -11.64167,-2.11687 -1.17244,-0.47133 -3.33614,-1.0567 -3.70416,-2.38105 z"
       id="path1" /></g></svg>
